{"Protocol":0,"Id":"f34f5c6a59b38e8b2e57da39f86b3068","Path":"/media/ram/OnlyFans.2024.Anabel054.Brother.Fucking.Sleeping.Sister.1.XXX.1080p.MP4-P2P[XC]/onlyfans.2024.anabel054.brother.fucking.sleeping.sister.1.xxx.mp4","EncoderPath":null,"EncoderProtocol":null,"Type":0,"Container":"mov,mp4,m4a,3gp,3g2,mj2","Size":274345503,"Name":"onlyfans.2024.anabel054.brother.fucking.sleeping.sister.1.xxx","IsRemote":false,"ETag":"7c217939adef21bb9387395c854e8759","RunTimeTicks":3850659999,"ReadAtNativeFramerate":false,"IgnoreDts":false,"IgnoreIndex":false,"GenPtsInput":false,"SupportsTranscoding":true,"SupportsDirectStream":true,"SupportsDirectPlay":true,"IsInfiniteStream":false,"UseMostCompatibleTranscodingProfile":false,"RequiresOpening":false,"OpenToken":null,"RequiresClosing":false,"LiveStreamId":null,"BufferMs":null,"RequiresLooping":false,"SupportsProbing":true,"VideoType":0,"IsoType":null,"Video3DFormat":null,"MediaStreams":[{"Codec":"h264","CodecTag":"avc1","Language":"und","ColorRange":null,"ColorSpace":"bt709","ColorTransfer":"bt709","ColorPrimaries":"bt709","DvVersionMajor":null,"DvVersionMinor":null,"DvProfile":null,"DvLevel":null,"RpuPresentFlag":null,"ElPresentFlag":null,"BlPresentFlag":null,"DvBlSignalCompatibilityId":null,"Rotation":null,"Comment":null,"TimeBase":"1/90000","CodecTimeBase":null,"Title":null,"VideoRange":1,"VideoRangeType":1,"VideoDoViTitle":null,"AudioSpatialFormat":0,"LocalizedUndefined":null,"LocalizedDefault":null,"LocalizedForced":null,"LocalizedExternal":null,"LocalizedHearingImpaired":null,"DisplayTitle":"1080p H264 SDR","NalLengthSize":"4","IsInterlaced":false,"IsAVC":true,"ChannelLayout":null,"BitRate":5531742,"BitDepth":8,"RefFrames":1,"PacketLength":null,"Channels":null,"SampleRate":null,"IsDefault":true,"IsForced":false,"IsHearingImpaired":false,"Height":1080,"Width":1920,"AverageFrameRate":30,"RealFrameRate":30,"ReferenceFrameRate":30,"Profile":"Main","Type":1,"AspectRatio":"16:9","Index":0,"Score":null,"IsExternal":false,"DeliveryMethod":null,"DeliveryUrl":null,"IsExternalUrl":null,"IsTextSubtitleStream":false,"SupportsExternalStream":false,"Path":null,"PixelFormat":"yuv420p","Level":31,"IsAnamorphic":false},{"Codec":"aac","CodecTag":"mp4a","Language":"und","ColorRange":null,"ColorSpace":null,"ColorTransfer":null,"ColorPrimaries":null,"DvVersionMajor":null,"DvVersionMinor":null,"DvProfile":null,"DvLevel":null,"RpuPresentFlag":null,"ElPresentFlag":null,"BlPresentFlag":null,"DvBlSignalCompatibilityId":null,"Rotation":null,"Comment":null,"TimeBase":"1/44100","CodecTimeBase":null,"Title":null,"VideoRange":0,"VideoRangeType":0,"VideoDoViTitle":null,"AudioSpatialFormat":0,"LocalizedUndefined":null,"LocalizedDefault":"Default","LocalizedForced":null,"LocalizedExternal":"External","LocalizedHearingImpaired":null,"DisplayTitle":"AAC - Stereo - Default","NalLengthSize":null,"IsInterlaced":false,"IsAVC":false,"ChannelLayout":"stereo","BitRate":160006,"BitDepth":null,"RefFrames":null,"PacketLength":null,"Channels":2,"SampleRate":44100,"IsDefault":true,"IsForced":false,"IsHearingImpaired":false,"Height":null,"Width":null,"AverageFrameRate":null,"RealFrameRate":null,"ReferenceFrameRate":null,"Profile":"LC","Type":0,"AspectRatio":null,"Index":1,"Score":null,"IsExternal":false,"DeliveryMethod":null,"DeliveryUrl":null,"IsExternalUrl":null,"IsTextSubtitleStream":false,"SupportsExternalStream":false,"Path":null,"PixelFormat":null,"Level":0,"IsAnamorphic":null}],"MediaAttachments":[],"Formats":[],"Bitrate":5699708,"FallbackMaxStreamingBitrate":null,"Timestamp":null,"RequiredHttpHeaders":{},"TranscodingUrl":null,"TranscodingSubProtocol":0,"TranscodingContainer":null,"AnalyzeDurationMs":null,"DefaultAudioStreamIndex":null,"DefaultSubtitleStreamIndex":null,"HasSegments":false}

/usr/lib/jellyfin-ffmpeg/ffmpeg -analyzeduration 200M -probesize 1G  -i file:"/media/ram/OnlyFans.2024.Anabel054.Brother.Fucking.Sleeping.Sister.1.XXX.1080p.MP4-P2P[XC]/onlyfans.2024.anabel054.brother.fucking.sleeping.sister.1.xxx.mp4" -map_metadata -1 -map_chapters -1 -threads 0 -map 0:0 -map 0:1 -map -0:s -codec:v:0 libx264 -preset veryfast -crf 23 -maxrate 5531742 -bufsize 11063484 -profile:v:0 main -level 31 -x264opts:0 subme=0:me_range=16:rc_lookahead=10:me=hex:open_gop=0 -force_key_frames:0 "expr:gte(t,n_forced*3)" -sc_threshold:v:0 0 -vf "setparams=color_primaries=bt709:color_trc=bt709:colorspace=bt709,scale=trunc(min(max(iw\,ih*a)\,min(1920\,1080*a))/2)*2:trunc(min(max(iw/a\,ih)\,min(1920/a\,1080))/2)*2,format=yuv420p" -codec:a:0 libfdk_aac -ac 2 -ab 160006 -ar 44100 -copyts -avoid_negative_ts disabled -max_muxing_queue_size 2048 -f hls -max_delay 5000000 -hls_time 3 -hls_segment_type fmp4 -hls_fmp4_init_filename "52f658a185fc4020fb3b9f81fe6b9b52-1.mp4" -start_number 0 -hls_segment_filename "/cache/transcodes/52f658a185fc4020fb3b9f81fe6b9b52%d.mp4" -hls_playlist_type vod -hls_list_size 0 -y "/cache/transcodes/52f658a185fc4020fb3b9f81fe6b9b52.m3u8"


ffmpeg version 7.0.2-Jellyfin Copyright (c) 2000-2024 the FFmpeg developers
  built with gcc 12 (Debian 12.2.0-14)
  configuration: --prefix=/usr/lib/jellyfin-ffmpeg --target-os=linux --extra-version=Jellyfin --disable-doc --disable-ffplay --disable-ptx-compression --disable-static --disable-libxcb --disable-sdl2 --disable-xlib --enable-lto=auto --enable-gpl --enable-version3 --enable-shared --enable-gmp --enable-gnutls --enable-chromaprint --enable-opencl --enable-libdrm --enable-libxml2 --enable-libass --enable-libfreetype --enable-libfribidi --enable-libfontconfig --enable-libharfbuzz --enable-libbluray --enable-libmp3lame --enable-libopus --enable-libtheora --enable-libvorbis --enable-libopenmpt --enable-libdav1d --enable-libsvtav1 --enable-libwebp --enable-libvpx --enable-libx264 --enable-libx265 --enable-libzvbi --enable-libzimg --enable-libfdk-aac --arch=arm64 --cross-prefix=/usr/bin/aarch64-linux-gnu- --toolchain=hardened --enable-cross-compile --enable-rkmpp --enable-rkrga
  libavutil      59.  8.100 / 59.  8.100
  libavcodec     61.  3.100 / 61.  3.100
  libavformat    61.  1.100 / 61.  1.100
  libavdevice    61.  1.100 / 61.  1.100
  libavfilter    10.  1.100 / 10.  1.100
  libswscale      8.  1.100 /  8.  1.100
  libswresample   5.  1.100 /  5.  1.100
  libpostproc    58.  1.100 / 58.  1.100
Input #0, mov,mp4,m4a,3gp,3g2,mj2, from 'file:/media/ram/OnlyFans.2024.Anabel054.Brother.Fucking.Sleeping.Sister.1.XXX.1080p.MP4-P2P[XC]/onlyfans.2024.anabel054.brother.fucking.sleeping.sister.1.xxx.mp4':
  Metadata:
    major_brand     : isom
    minor_version   : 512
    compatible_brands: isomiso2avc1mp41
    title           : [XXXClub.to]OnlyFans.2024.Anabel054.Brother.Fucking.Sleeping.Sister.1.XXX.1080p.MP4-P2P[XC]
    encoder         : Lavf58.20.100
    comment         : [XXXClub.to]OnlyFans.2024.Anabel054.Brother.Fucking.Sleeping.Sister.1.XXX.1080p.MP4-P2P[XC]
  Duration: 00:06:25.07, start: 0.000000, bitrate: 5699 kb/s
  Stream #0:0[0x1](und): Video: h264 (Main) (avc1 / 0x31637661), yuv420p(tv, bt709, progressive), 1920x1080 [SAR 1:1 DAR 16:9], 5531 kb/s, 30 fps, 30 tbr, 90k tbn (default)
      Metadata:
        handler_name    : VideoHandler
        vendor_id       : [0][0][0][0]
  Stream #0:1[0x2](und): Audio: aac (LC) (mp4a / 0x6134706D), 44100 Hz, stereo, fltp, 160 kb/s (default)
      Metadata:
        handler_name    : SoundHandler
        vendor_id       : [0][0][0][0]
Stream mapping:
  Stream #0:0 -> #0:0 (h264 (native) -> h264 (libx264))
  Stream #0:1 -> #0:1 (aac (native) -> aac (libfdk_aac))
Press [q] to stop, [?] for help
[libx264 @ 0xaaaae0755b80] using SAR=1/1
[libx264 @ 0xaaaae0755b80] frame MB size (120x68) > level limit (3600)
[libx264 @ 0xaaaae0755b80] DPB size (4 frames, 32640 mbs) > level limit (2 frames, 18000 mbs)
[libx264 @ 0xaaaae0755b80] MB rate (244800) > level limit (108000)
[libx264 @ 0xaaaae0755b80] using cpu capabilities: ARMv8 NEON
[libx264 @ 0xaaaae0755b80] profile Main, level 3.1, 4:2:0, 8-bit
[libx264 @ 0xaaaae0755b80] 264 - core 164 r3095 baee400 - H.264/MPEG-4 AVC codec - Copyleft 2003-2022 - http://www.videolan.org/x264.html - options: cabac=1 ref=1 deblock=1:0:0 analyse=0x1:0x111 me=hex subme=0 psy=1 psy_rd=1.00:0.00 mixed_ref=0 me_range=16 chroma_me=1 trellis=0 8x8dct=0 cqm=0 deadzone=21,11 fast_pskip=1 chroma_qp_offset=0 threads=6 lookahead_threads=1 sliced_threads=0 nr=0 decimate=1 interlaced=0 bluray_compat=0 constrained_intra=0 bframes=3 b_pyramid=2 b_adapt=1 b_bias=0 direct=1 weightb=1 open_gop=0 weightp=1 keyint=250 keyint_min=25 scenecut=0 intra_refresh=0 rc_lookahead=10 rc=crf mbtree=1 crf=23.0 qcomp=0.60 qpmin=0 qpmax=69 qpstep=4 vbv_maxrate=5531 vbv_bufsize=11063 crf_max=0.0 nal_hrd=none filler=0 ip_ratio=1.40 aq=1:1.00
[hls @ 0xaaaae07adc60] Opening '/cache/transcodes/52f658a185fc4020fb3b9f81fe6b9b52-1.mp4' for writing
Output #0, hls, to '/cache/transcodes/52f658a185fc4020fb3b9f81fe6b9b52.m3u8':
  Metadata:
    encoder         : Lavf61.1.100
  Stream #0:0: Video: h264, yuv420p(tv, bt709, progressive), 1920x1080 [SAR 1:1 DAR 16:9], q=2-31, 30 fps, 15360 tbn (default)
      Metadata:
        encoder         : Lavc61.3.100 libx264
      Side data:
        cpb: bitrate max/min/avg: 5531000/0/0 buffer size: 11063000 vbv_delay: N/A
  Stream #0:1: Audio: aac, 44100 Hz, stereo, s16, 160 kb/s (default)
      Metadata:
        encoder         : Lavc61.3.100 libfdk_aac
frame=    0 fps=0.0 q=0.0 size=N/A time=N/A bitrate=N/A speed=N/A    
frame=    0 fps=0.0 q=0.0 size=N/A time=N/A bitrate=N/A speed=N/A    
frame=    0 fps=0.0 q=0.0 size=N/A time=N/A bitrate=N/A speed=N/A    
frame=    0 fps=0.0 q=0.0 size=N/A time=N/A bitrate=N/A speed=N/A    
frame=    3 fps=1.0 q=29.0 size=N/A time=00:00:00.00 bitrate=N/A speed=   0x    
frame=    4 fps=1.1 q=29.0 size=N/A time=00:00:00.03 bitrate=N/A speed=0.00951x    
frame=    9 fps=2.2 q=29.0 size=N/A time=00:00:00.20 bitrate=N/A speed=0.0499x    
frame=   11 fps=2.4 q=29.0 size=N/A time=00:00:00.26 bitrate=N/A speed=0.0592x    
frame=   13 fps=2.6 q=29.0 size=N/A time=00:00:00.33 bitrate=N/A speed=0.0666x    
frame=   15 fps=2.7 q=29.0 size=N/A time=00:00:00.40 bitrate=N/A speed=0.0726x    
frame=   15 fps=2.5 q=29.0 size=N/A time=00:00:00.40 bitrate=N/A speed=0.0666x    
frame=   19 fps=2.9 q=29.0 size=N/A time=00:00:00.53 bitrate=N/A speed=0.082x    
frame=   21 fps=3.0 q=29.0 size=N/A time=00:00:00.60 bitrate=N/A speed=0.0856x    
frame=   25 fps=3.3 q=29.0 size=N/A time=00:00:00.73 bitrate=N/A speed=0.0977x    
frame=   26 fps=3.2 q=29.0 size=N/A time=00:00:00.76 bitrate=N/A speed=0.0957x    
frame=   30 fps=3.5 q=29.0 size=N/A time=00:00:00.90 bitrate=N/A speed=0.106x    
frame=   32 fps=3.5 q=29.0 size=N/A time=00:00:00.96 bitrate=N/A speed=0.107x    
frame=   38 fps=4.0 q=29.0 size=N/A time=00:00:01.16 bitrate=N/A speed=0.123x    
frame=   39 fps=3.9 q=29.0 size=N/A time=00:00:01.20 bitrate=N/A speed=0.12x    
frame=   46 fps=4.2 q=29.0 size=N/A time=00:00:01.43 bitrate=N/A speed=0.13x    
frame=   49 fps=4.3 q=29.0 size=N/A time=00:00:01.53 bitrate=N/A speed=0.133x    
frame=   54 fps=4.5 q=29.0 size=N/A time=00:00:01.70 bitrate=N/A speed=0.141x    
frame=   54 fps=4.3 q=29.0 size=N/A time=00:00:01.70 bitrate=N/A speed=0.136x    
frame=   58 fps=4.5 q=29.0 size=N/A time=00:00:01.83 bitrate=N/A speed=0.141x    
frame=   62 fps=4.6 q=29.0 size=N/A time=00:00:01.96 bitrate=N/A speed=0.145x    
frame=   68 fps=4.8 q=29.0 size=N/A time=00:00:02.16 bitrate=N/A speed=0.154x    
frame=   74 fps=5.1 q=29.0 size=N/A time=00:00:02.36 bitrate=N/A speed=0.163x    
frame=   80 fps=5.3 q=29.0 size=N/A time=00:00:02.56 bitrate=N/A speed=0.171x    
frame=   85 fps=5.5 q=29.0 size=N/A time=00:00:02.73 bitrate=N/A speed=0.176x    
frame=   90 fps=5.6 q=29.0 size=N/A time=00:00:02.90 bitrate=N/A speed=0.181x    
[hls @ 0xaaaae07adc60] Opening '/cache/transcodes/52f658a185fc4020fb3b9f81fe6b9b520.mp4' for writing
frame=   92 fps=5.6 q=29.0 size=N/A time=00:00:02.96 bitrate=N/A speed=0.179x    
frame=   99 fps=5.8 q=29.0 size=N/A time=00:00:03.20 bitrate=N/A speed=0.188x    
frame=  104 fps=5.9 q=29.0 size=N/A time=00:00:03.36 bitrate=N/A speed=0.192x    
frame=  109 fps=6.0 q=29.0 size=N/A time=00:00:03.53 bitrate=N/A speed=0.196x    
frame=  111 fps=6.0 q=29.0 size=N/A time=00:00:03.60 bitrate=N/A speed=0.194x    
frame=  118 fps=6.2 q=29.0 size=N/A time=00:00:03.83 bitrate=N/A speed=0.201x    
frame=  119 fps=6.1 q=29.0 size=N/A time=00:00:03.86 bitrate=N/A speed=0.198x    
frame=  126 fps=6.3 q=29.0 size=N/A time=00:00:04.13 bitrate=N/A speed=0.206x    
frame=  132 fps=6.4 q=29.0 size=N/A time=00:00:04.30 bitrate=N/A speed=0.209x    
frame=  139 fps=6.6 q=29.0 size=N/A time=00:00:04.53 bitrate=N/A speed=0.215x    
frame=  144 fps=6.7 q=29.0 size=N/A time=00:00:04.70 bitrate=N/A speed=0.218x    
frame=  146 fps=6.6 q=29.0 size=N/A time=00:00:04.76 bitrate=N/A speed=0.216x    
frame=  152 fps=6.7 q=29.0 size=N/A time=00:00:04.96 bitrate=N/A speed=0.22x    
frame=  152 fps=6.6 q=29.0 size=N/A time=00:00:04.96 bitrate=N/A speed=0.215x    
frame=  154 fps=6.5 q=29.0 size=N/A time=00:00:05.03 bitrate=N/A speed=0.213x    
frame=  158 fps=6.6 q=29.0 size=N/A time=00:00:05.16 bitrate=N/A speed=0.214x    
frame=  167 fps=6.8 q=29.0 size=N/A time=00:00:05.46 bitrate=N/A speed=0.222x    
frame=  174 fps=6.9 q=29.0 size=N/A time=00:00:05.70 bitrate=N/A speed=0.227x    
frame=  180 fps=7.0 q=29.0 size=N/A time=00:00:05.90 bitrate=N/A speed=0.23x    
[hls @ 0xaaaae07adc60] Opening '/cache/transcodes/52f658a185fc4020fb3b9f81fe6b9b521.mp4' for writing
frame=  181 fps=6.9 q=29.0 size=N/A time=00:00:06.00 bitrate=N/A speed=0.23x    
frame=  189 fps=7.1 q=29.0 size=N/A time=00:00:06.20 bitrate=N/A speed=0.233x    
frame=  194 fps=7.2 q=29.0 size=N/A time=00:00:06.36 bitrate=N/A speed=0.235x    
frame=  199 fps=7.2 q=29.0 size=N/A time=00:00:06.53 bitrate=N/A speed=0.237x    
frame=  205 fps=7.3 q=29.0 size=N/A time=00:00:06.73 bitrate=N/A speed=0.24x    
frame=  214 fps=7.5 q=29.0 size=N/A time=00:00:07.03 bitrate=N/A speed=0.246x    
frame=  223 fps=7.7 q=29.0 size=N/A time=00:00:07.33 bitrate=N/A speed=0.252x    
frame=  230 fps=7.8 q=29.0 size=N/A time=00:00:07.56 bitrate=N/A speed=0.256x    
frame=  236 fps=7.8 q=29.0 size=N/A time=00:00:07.76 bitrate=N/A speed=0.258x    
frame=  238 fps=7.8 q=29.0 size=N/A time=00:00:07.83 bitrate=N/A speed=0.256x    
frame=  241 fps=7.7 q=29.0 size=N/A time=00:00:07.93 bitrate=N/A speed=0.255x    
frame=  249 fps=7.9 q=29.0 size=N/A time=00:00:08.20 bitrate=N/A speed=0.259x    
frame=  257 fps=8.0 q=29.0 size=N/A time=00:00:08.46 bitrate=N/A speed=0.264x    
frame=  261 fps=8.0 q=29.0 size=N/A time=00:00:08.60 bitrate=N/A speed=0.264x    
frame=  266 fps=8.0 q=26.0 size=N/A time=00:00:08.76 bitrate=N/A speed=0.265x    
[hls @ 0xaaaae07adc60] Opening '/cache/transcodes/52f658a185fc4020fb3b9f81fe6b9b522.mp4' for writing
frame=  274 fps=8.2 q=29.0 size=N/A time=00:00:09.03 bitrate=N/A speed=0.269x    
frame=  280 fps=8.2 q=29.0 size=N/A time=00:00:09.23 bitrate=N/A speed=0.271x    
frame=  284 fps=8.2 q=29.0 size=N/A time=00:00:09.36 bitrate=N/A speed=0.271x    
frame=  289 fps=8.2 q=29.0 size=N/A time=00:00:09.53 bitrate=N/A speed=0.271x    
frame=  298 fps=8.4 q=29.0 size=N/A time=00:00:09.83 bitrate=N/A speed=0.276x    
frame=  310 fps=8.6 q=29.0 size=N/A time=00:00:10.23 bitrate=N/A speed=0.283x    
frame=  319 fps=8.7 q=29.0 size=N/A time=00:00:10.53 bitrate=N/A speed=0.288x    
frame=  325 fps=8.8 q=29.0 size=N/A time=00:00:10.73 bitrate=N/A speed=0.289x    
frame=  328 fps=8.7 q=29.0 size=N/A time=00:00:10.83 bitrate=N/A speed=0.288x    
frame=  336 fps=8.8 q=29.0 size=N/A time=00:00:11.10 bitrate=N/A speed=0.291x    
frame=  340 fps=8.8 q=29.0 size=N/A time=00:00:11.23 bitrate=N/A speed=0.291x    
frame=  345 fps=8.8 q=29.0 size=N/A time=00:00:11.40 bitrate=N/A speed=0.291x    
frame=  352 fps=8.9 q=29.0 size=N/A time=00:00:11.63 bitrate=N/A speed=0.294x    
frame=  358 fps=8.9 q=29.0 size=N/A time=00:00:11.83 bitrate=N/A speed=0.295x    
[hls @ 0xaaaae07adc60] Opening '/cache/transcodes/52f658a185fc4020fb3b9f81fe6b9b523.mp4' for writing
frame=  363 fps=8.9 q=29.0 size=N/A time=00:00:12.00 bitrate=N/A speed=0.295x    
frame=  368 fps=8.9 q=29.0 size=N/A time=00:00:12.16 bitrate=N/A speed=0.296x    
frame=  374 fps=9.0 q=29.0 size=N/A time=00:00:12.36 bitrate=N/A speed=0.297x    
frame=  377 fps=8.9 q=29.0 size=N/A time=00:00:12.50 bitrate=N/A speed=0.297x    
frame=  382 fps=9.0 q=29.0 size=N/A time=00:00:12.63 bitrate=N/A speed=0.296x    
frame=  388 fps=9.0 q=29.0 size=N/A time=00:00:12.83 bitrate=N/A speed=0.297x    
frame=  392 fps=9.0 q=29.0 size=N/A time=00:00:12.96 bitrate=N/A speed=0.297x    
frame=  397 fps=9.0 q=29.0 size=N/A time=00:00:13.13 bitrate=N/A speed=0.297x    
frame=  403 fps=9.0 q=29.0 size=N/A time=00:00:13.33 bitrate=N/A speed=0.299x    
frame=  406 fps=9.0 q=29.0 size=N/A time=00:00:13.43 bitrate=N/A speed=0.297x    
frame=  410 fps=9.0 q=29.0 size=N/A time=00:00:13.56 bitrate=N/A speed=0.297x    
frame=  412 fps=8.9 q=29.0 size=N/A time=00:00:13.63 bitrate=N/A speed=0.295x    
frame=  416 fps=8.9 q=29.0 size=N/A time=00:00:13.76 bitrate=N/A speed=0.295x    
frame=  421 fps=8.9 q=29.0 size=N/A time=00:00:13.93 bitrate=N/A speed=0.295x    
frame=  422 fps=8.9 q=29.0 size=N/A time=00:00:13.96 bitrate=N/A speed=0.293x    
frame=  426 fps=8.8 q=29.0 size=N/A time=00:00:14.10 bitrate=N/A speed=0.293x    
frame=  428 fps=8.8 q=29.0 size=N/A time=00:00:14.16 bitrate=N/A speed=0.291x    
frame=  431 fps=8.8 q=29.0 size=N/A time=00:00:14.26 bitrate=N/A speed=0.29x    
frame=  436 fps=8.8 q=29.0 size=N/A time=00:00:14.43 bitrate=N/A speed=0.291x    
frame=  440 fps=8.8 q=29.0 size=N/A time=00:00:14.56 bitrate=N/A speed=0.29x    
frame=  442 fps=8.7 q=29.0 size=N/A time=00:00:14.63 bitrate=N/A speed=0.289x    
frame=  445 fps=8.7 q=29.0 size=N/A time=00:00:14.73 bitrate=N/A speed=0.288x    
frame=  448 fps=8.7 q=29.0 size=N/A time=00:00:14.83 bitrate=N/A speed=0.287x    
[hls @ 0xaaaae07adc60] Opening '/cache/transcodes/52f658a185fc4020fb3b9f81fe6b9b524.mp4' for writing
frame=  451 fps=8.6 q=29.0 size=N/A time=00:00:15.06 bitrate=N/A speed=0.289x    
[mp4 @ 0xffff68205fa0] Packet duration: -1 / dts: 661503 is out of range
frame=  456 fps=8.7 q=29.0 size=N/A time=00:00:15.10 bitrate=N/A speed=0.287x    
frame=  460 fps=8.7 q=29.0 size=N/A time=00:00:15.23 bitrate=N/A speed=0.286x    
frame=  464 fps=8.6 q=29.0 size=N/A time=00:00:15.36 bitrate=N/A speed=0.286x    
frame=  466 fps=8.6 q=29.0 size=N/A time=00:00:15.43 bitrate=N/A speed=0.285x    
frame=  470 fps=8.6 q=29.0 size=N/A time=00:00:15.56 bitrate=N/A speed=0.285x    
frame=  475 fps=8.6 q=29.0 size=N/A time=00:00:15.73 bitrate=N/A speed=0.285x    
frame=  475 fps=8.5 q=29.0 size=N/A time=00:00:15.73 bitrate=N/A speed=0.283x    
frame=  479 fps=8.5 q=29.0 size=N/A time=00:00:15.86 bitrate=N/A speed=0.282x    
frame=  481 fps=8.5 q=29.0 size=N/A time=00:00:15.93 bitrate=N/A speed=0.281x    
frame=  484 fps=8.5 q=29.0 size=N/A time=00:00:16.03 bitrate=N/A speed=0.28x    
frame=  488 fps=8.5 q=29.0 size=N/A time=00:00:16.16 bitrate=N/A speed=0.28x    
frame=  488 fps=8.4 q=29.0 size=N/A time=00:00:16.16 bitrate=N/A speed=0.278x    
frame=  493 fps=8.4 q=29.0 size=N/A time=00:00:16.33 bitrate=N/A speed=0.278x    
frame=  496 fps=8.4 q=29.0 size=N/A time=00:00:16.43 bitrate=N/A speed=0.278x    
frame=  500 fps=8.4 q=29.0 size=N/A time=00:00:16.56 bitrate=N/A speed=0.278x    
frame=  505 fps=8.4 q=29.0 size=N/A time=00:00:16.73 bitrate=N/A speed=0.278x    
frame=  511 fps=8.4 q=29.0 size=N/A time=00:00:16.93 bitrate=N/A speed=0.279x    
frame=  516 fps=8.4 q=29.0 size=N/A time=00:00:17.10 bitrate=N/A speed=0.279x    
frame=  521 fps=8.4 q=29.0 size=N/A time=00:00:17.26 bitrate=N/A speed=0.28x    
frame=  528 fps=8.5 q=29.0 size=N/A time=00:00:17.50 bitrate=N/A speed=0.281x    
frame=  532 fps=8.5 q=29.0 size=N/A time=00:00:17.63 bitrate=N/A speed=0.281x    
frame=  537 fps=8.5 q=29.0 size=N/A time=00:00:17.80 bitrate=N/A speed=0.282x    
frame=  540 fps=8.5 q=29.0 size=N/A time=00:00:17.90 bitrate=N/A speed=0.281x    
[hls @ 0xaaaae07adc60] Opening '/cache/transcodes/52f658a185fc4020fb3b9f81fe6b9b525.mp4' for writing
frame=  546 fps=8.5 q=29.0 size=N/A time=00:00:18.10 bitrate=N/A speed=0.282x    
frame=  548 fps=8.5 q=29.0 size=N/A time=00:00:18.16 bitrate=N/A speed=0.281x    
frame=  553 fps=8.5 q=29.0 size=N/A time=00:00:18.33 bitrate=N/A speed=0.281x    
frame=  558 fps=8.5 q=29.0 size=N/A time=00:00:18.50 bitrate=N/A speed=0.282x    
frame=  558 fps=8.4 q=29.0 size=N/A time=00:00:18.50 bitrate=N/A speed=0.279x    
frame=  561 fps=8.4 q=29.0 size=N/A time=00:00:18.60 bitrate=N/A speed=0.279x    
frame=  561 fps=8.3 q=29.0 size=N/A time=00:00:18.60 bitrate=N/A speed=0.277x    
frame=  567 fps=8.4 q=29.0 size=N/A time=00:00:18.80 bitrate=N/A speed=0.278x    
frame=  569 fps=8.3 q=29.0 size=N/A time=00:00:18.86 bitrate=N/A speed=0.277x    
frame=  569 fps=8.3 q=29.0 size=N/A time=00:00:18.86 bitrate=N/A speed=0.275x    
frame=  572 fps=8.3 q=29.0 size=N/A time=00:00:18.96 bitrate=N/A speed=0.274x    
frame=  573 fps=8.2 q=29.0 size=N/A time=00:00:19.00 bitrate=N/A speed=0.273x    
frame=  575 fps=8.2 q=29.0 size=N/A time=00:00:19.06 bitrate=N/A speed=0.272x    
frame=  583 fps=8.2 q=29.0 size=N/A time=00:00:19.33 bitrate=N/A speed=0.272x    
frame=  585 fps=8.2 q=29.0 size=N/A time=00:00:19.40 bitrate=N/A speed=0.271x    
frame=  585 fps=8.1 q=29.0 size=N/A time=00:00:19.40 bitrate=N/A speed=0.269x    
frame=  588 fps=8.1 q=29.0 size=N/A time=00:00:19.50 bitrate=N/A speed=0.268x    
frame=  588 fps=8.0 q=29.0 size=N/A time=00:00:19.50 bitrate=N/A speed=0.266x    
frame=  590 fps=8.0 q=29.0 size=N/A time=00:00:19.56 bitrate=N/A speed=0.265x    
frame=  590 fps=8.0 q=29.0 size=N/A time=00:00:19.56 bitrate=N/A speed=0.264x    
frame=  593 fps=7.9 q=29.0 size=N/A time=00:00:19.66 bitrate=N/A speed=0.263x    
frame=  595 fps=7.9 q=29.0 size=N/A time=00:00:19.73 bitrate=N/A speed=0.262x    
frame=  599 fps=7.9 q=29.0 size=N/A time=00:00:19.86 bitrate=N/A speed=0.262x    
frame=  600 fps=7.9 q=29.0 size=N/A time=00:00:19.90 bitrate=N/A speed=0.261x    
frame=  604 fps=7.9 q=29.0 size=N/A time=00:00:20.03 bitrate=N/A speed=0.261x    
frame=  604 fps=7.8 q=29.0 size=N/A time=00:00:20.03 bitrate=N/A speed=0.259x    
frame=  607 fps=7.8 q=29.0 size=N/A time=00:00:20.13 bitrate=N/A speed=0.259x    
frame=  611 fps=7.8 q=29.0 size=N/A time=00:00:20.26 bitrate=N/A speed=0.259x    
frame=  612 fps=7.8 q=29.0 size=N/A time=00:00:20.30 bitrate=N/A speed=0.258x    
frame=  613 fps=7.7 q=29.0 size=N/A time=00:00:20.33 bitrate=N/A speed=0.257x    
frame=  617 fps=7.7 q=29.0 size=N/A time=00:00:20.46 bitrate=N/A speed=0.257x    
frame=  617 fps=7.7 q=29.0 size=N/A time=00:00:20.46 bitrate=N/A speed=0.255x    
frame=  620 fps=7.7 q=29.0 size=N/A time=00:00:20.56 bitrate=N/A speed=0.255x    
frame=  622 fps=7.7 q=29.0 size=N/A time=00:00:20.63 bitrate=N/A speed=0.254x    
frame=  624 fps=7.6 q=29.0 size=N/A time=00:00:20.70 bitrate=N/A speed=0.253x    
frame=  625 fps=7.6 q=29.0 size=N/A time=00:00:20.73 bitrate=N/A speed=0.252x    
frame=  626 fps=7.6 q=26.0 size=N/A time=00:00:20.76 bitrate=N/A speed=0.251x    
frame=  628 fps=7.5 q=29.0 size=N/A time=00:00:20.83 bitrate=N/A speed=0.25x    
frame=  628 fps=7.5 q=29.0 size=N/A time=00:00:20.83 bitrate=N/A speed=0.249x    
[hls @ 0xaaaae07adc60] Opening '/cache/transcodes/52f658a185fc4020fb3b9f81fe6b9b526.mp4' for writing
frame=  631 fps=7.5 q=29.0 size=N/A time=00:00:20.93 bitrate=N/A speed=0.249x    
frame=  633 fps=7.5 q=29.0 size=N/A time=00:00:21.00 bitrate=N/A speed=0.248x    
frame=  633 fps=7.4 q=29.0 size=N/A time=00:00:21.00 bitrate=N/A speed=0.246x    
frame=  639 fps=7.5 q=29.0 size=N/A time=00:00:21.20 bitrate=N/A speed=0.247x    
frame=  641 fps=7.4 q=29.0 size=N/A time=00:00:21.26 bitrate=N/A speed=0.247x    
frame=  642 fps=7.4 q=29.0 size=N/A time=00:00:21.30 bitrate=N/A speed=0.246x    
frame=  646 fps=7.4 q=29.0 size=N/A time=00:00:21.43 bitrate=N/A speed=0.246x    
frame=  649 fps=7.4 q=29.0 size=N/A time=00:00:21.53 bitrate=N/A speed=0.245x    
frame=  654 fps=7.4 q=29.0 size=N/A time=00:00:21.70 bitrate=N/A speed=0.246x    
frame=  656 fps=7.4 q=29.0 size=N/A time=00:00:21.76 bitrate=N/A speed=0.245x    
frame=  658 fps=7.4 q=29.0 size=N/A time=00:00:21.83 bitrate=N/A speed=0.245x    
frame=  662 fps=7.4 q=29.0 size=N/A time=00:00:21.96 bitrate=N/A speed=0.245x    
frame=  666 fps=7.4 q=29.0 size=N/A time=00:00:22.10 bitrate=N/A speed=0.245x    
frame=  669 fps=7.4 q=29.0 size=N/A time=00:00:22.20 bitrate=N/A speed=0.245x    
frame=  673 fps=7.4 q=29.0 size=N/A time=00:00:22.33 bitrate=N/A speed=0.245x    
frame=  677 fps=7.4 q=29.0 size=N/A time=00:00:22.46 bitrate=N/A speed=0.245x    
frame=  680 fps=7.4 q=29.0 size=N/A time=00:00:22.56 bitrate=N/A speed=0.245x    
frame=  685 fps=7.4 q=29.0 size=N/A time=00:00:22.73 bitrate=N/A speed=0.245x    
frame=  690 fps=7.4 q=29.0 size=N/A time=00:00:22.90 bitrate=N/A speed=0.246x    
frame=  696 fps=7.4 q=29.0 size=N/A time=00:00:23.10 bitrate=N/A speed=0.246x    
frame=  701 fps=7.4 q=29.0 size=N/A time=00:00:23.26 bitrate=N/A speed=0.247x    
frame=  703 fps=7.4 q=29.0 size=N/A time=00:00:23.33 bitrate=N/A speed=0.246x    
frame=  707 fps=7.4 q=29.0 size=N/A time=00:00:23.46 bitrate=N/A speed=0.246x    
frame=  710 fps=7.4 q=29.0 size=N/A time=00:00:23.56 bitrate=N/A speed=0.246x    
frame=  713 fps=7.4 q=29.0 size=N/A time=00:00:23.66 bitrate=N/A speed=0.246x    
frame=  716 fps=7.4 q=26.0 size=N/A time=00:00:23.76 bitrate=N/A speed=0.246x    
[hls @ 0xaaaae07adc60] Opening '/cache/transcodes/52f658a185fc4020fb3b9f81fe6b9b527.mp4' for writing
frame=  721 fps=7.4 q=29.0 size=N/A time=00:00:23.93 bitrate=N/A speed=0.246x    
frame=  723 fps=7.4 q=29.0 size=N/A time=00:00:24.00 bitrate=N/A speed=0.245x    
frame=  728 fps=7.4 q=29.0 size=N/A time=00:00:24.16 bitrate=N/A speed=0.246x    
frame=  730 fps=7.4 q=29.0 size=N/A time=00:00:24.23 bitrate=N/A speed=0.245x    
frame=  734 fps=7.4 q=29.0 size=N/A time=00:00:24.36 bitrate=N/A speed=0.245x    
frame=  739 fps=7.4 q=29.0 size=N/A time=00:00:24.53 bitrate=N/A speed=0.246x    
frame=  741 fps=7.4 q=29.0 size=N/A time=00:00:24.60 bitrate=N/A speed=0.245x    
frame=  746 fps=7.4 q=29.0 size=N/A time=00:00:24.76 bitrate=N/A speed=0.246x    
frame=  750 fps=7.4 q=29.0 size=N/A time=00:00:24.90 bitrate=N/A speed=0.246x    
frame=  755 fps=7.4 q=29.0 size=N/A time=00:00:25.06 bitrate=N/A speed=0.246x    
frame=  756 fps=7.4 q=29.0 size=N/A time=00:00:25.10 bitrate=N/A speed=0.245x    
frame=  760 fps=7.4 q=29.0 size=N/A time=00:00:25.23 bitrate=N/A speed=0.245x    
frame=  764 fps=7.4 q=29.0 size=N/A time=00:00:25.36 bitrate=N/A speed=0.246x    
frame=  770 fps=7.4 q=29.0 size=N/A time=00:00:25.56 bitrate=N/A speed=0.246x    
frame=  776 fps=7.4 q=29.0 size=N/A time=00:00:25.76 bitrate=N/A speed=0.247x    
frame=  776 fps=7.4 q=29.0 size=N/A time=00:00:25.76 bitrate=N/A speed=0.246x    
frame=  778 fps=7.4 q=29.0 size=N/A time=00:00:25.83 bitrate=N/A speed=0.245x    
frame=  782 fps=7.4 q=29.0 size=N/A time=00:00:25.96 bitrate=N/A speed=0.245x    
frame=  786 fps=7.4 q=29.0 size=N/A time=00:00:26.10 bitrate=N/A speed=0.246x    
frame=  789 fps=7.4 q=29.0 size=N/A time=00:00:26.20 bitrate=N/A speed=0.245x    
frame=  794 fps=7.4 q=29.0 size=N/A time=00:00:26.36 bitrate=N/A speed=0.246x    
frame=  794 fps=7.4 q=29.0 size=N/A time=00:00:26.36 bitrate=N/A speed=0.245x    
frame=  800 fps=7.4 q=29.0 size=N/A time=00:00:26.56 bitrate=N/A speed=0.245x    
frame=  805 fps=7.4 q=29.0 size=N/A time=00:00:26.73 bitrate=N/A speed=0.246x    
frame=  805 fps=7.4 q=26.0 size=N/A time=00:00:26.76 bitrate=N/A speed=0.245x    
frame=  808 fps=7.4 q=29.0 size=N/A time=00:00:26.83 bitrate=N/A speed=0.244x    
[hls @ 0xaaaae07adc60] Opening '/cache/transcodes/52f658a185fc4020fb3b9f81fe6b9b528.mp4' for writing
frame=  813 fps=7.4 q=29.0 size=N/A time=00:00:27.00 bitrate=N/A speed=0.245x    
frame=  813 fps=7.3 q=29.0 size=N/A time=00:00:27.00 bitrate=N/A speed=0.244x    
frame=  818 fps=7.3 q=29.0 size=N/A time=00:00:27.16 bitrate=N/A speed=0.244x    
frame=  818 fps=7.3 q=29.0 size=N/A time=00:00:27.16 bitrate=N/A speed=0.243x    
frame=  824 fps=7.3 q=29.0 size=N/A time=00:00:27.36 bitrate=N/A speed=0.244x    
frame=  825 fps=7.3 q=29.0 size=N/A time=00:00:27.40 bitrate=N/A speed=0.243x    
frame=  830 fps=7.3 q=29.0 size=N/A time=00:00:27.56 bitrate=N/A speed=0.243x    
frame=  833 fps=7.3 q=29.0 size=N/A time=00:00:27.66 bitrate=N/A speed=0.243x    
frame=  835 fps=7.3 q=29.0 size=N/A time=00:00:27.73 bitrate=N/A speed=0.243x    
frame=  841 fps=7.3 q=29.0 size=N/A time=00:00:27.93 bitrate=N/A speed=0.243x    
frame=  847 fps=7.3 q=29.0 size=N/A time=00:00:28.13 bitrate=N/A speed=0.244x    
frame=  853 fps=7.4 q=29.0 size=N/A time=00:00:28.33 bitrate=N/A speed=0.245x    
frame=  859 fps=7.4 q=29.0 size=N/A time=00:00:28.53 bitrate=N/A speed=0.245x    
frame=  862 fps=7.4 q=29.0 size=N/A time=00:00:28.63 bitrate=N/A speed=0.245x    
frame=  867 fps=7.4 q=29.0 size=N/A time=00:00:28.80 bitrate=N/A speed=0.245x    
frame=  878 fps=7.5 q=29.0 size=N/A time=00:00:29.16 bitrate=N/A speed=0.248x    
frame=  878 fps=7.4 q=29.0 size=N/A time=00:00:29.16 bitrate=N/A speed=0.246x    
frame=  883 fps=7.4 q=29.0 size=N/A time=00:00:29.33 bitrate=N/A speed=0.247x    
frame=  889 fps=7.4 q=29.0 size=N/A time=00:00:29.53 bitrate=N/A speed=0.247x    
frame=  890 fps=7.4 q=29.0 size=N/A time=00:00:29.56 bitrate=N/A speed=0.247x    
frame=  895 fps=7.4 q=29.0 size=N/A time=00:00:29.73 bitrate=N/A speed=0.247x    
frame=  898 fps=7.4 q=29.0 size=N/A time=00:00:29.83 bitrate=N/A speed=0.247x    
frame=  900 fps=7.4 q=29.0 size=N/A time=00:00:29.90 bitrate=N/A speed=0.246x    
[hls @ 0xaaaae07adc60] Opening '/cache/transcodes/52f658a185fc4020fb3b9f81fe6b9b529.mp4' for writing
frame=  908 fps=7.5 q=29.0 size=N/A time=00:00:30.16 bitrate=N/A speed=0.248x    
frame=  914 fps=7.5 q=29.0 size=N/A time=00:00:30.36 bitrate=N/A speed=0.248x    
frame=  918 fps=7.5 q=29.0 size=N/A time=00:00:30.50 bitrate=N/A speed=0.248x    
frame=  922 fps=7.5 q=29.0 size=N/A time=00:00:30.63 bitrate=N/A speed=0.248x    
frame=  926 fps=7.5 q=29.0 size=N/A time=00:00:30.76 bitrate=N/A speed=0.248x    
frame=  928 fps=7.5 q=29.0 size=N/A time=00:00:30.83 bitrate=N/A speed=0.248x    
frame=  931 fps=7.5 q=29.0 size=N/A time=00:00:30.93 bitrate=N/A speed=0.248x    
frame=  933 fps=7.4 q=29.0 size=N/A time=00:00:31.00 bitrate=N/A speed=0.247x    
frame=  940 fps=7.5 q=29.0 size=N/A time=00:00:31.23 bitrate=N/A speed=0.248x    
frame=  942 fps=7.5 q=29.0 size=N/A time=00:00:31.33 bitrate=N/A speed=0.248x    
frame=  950 fps=7.5 q=29.0 size=N/A time=00:00:31.56 bitrate=N/A speed=0.249x    
frame=  953 fps=7.5 q=29.0 size=N/A time=00:00:31.66 bitrate=N/A speed=0.249x    
frame=  959 fps=7.5 q=29.0 size=N/A time=00:00:31.86 bitrate=N/A speed=0.249x    
frame=  962 fps=7.5 q=29.0 size=N/A time=00:00:31.96 bitrate=N/A speed=0.249x    
frame=  966 fps=7.5 q=29.0 size=N/A time=00:00:32.10 bitrate=N/A speed=0.249x    
frame=  970 fps=7.5 q=29.0 size=N/A time=00:00:32.23 bitrate=N/A speed=0.249x    
frame=  975 fps=7.5 q=29.0 size=N/A time=00:00:32.40 bitrate=N/A speed=0.249x    
frame=  981 fps=7.5 q=29.0 size=N/A time=00:00:32.60 bitrate=N/A speed=0.25x    
[hls @ 0xaaaae07adc60] Opening '/cache/transcodes/52f658a185fc4020fb3b9f81fe6b9b5210.mp4' for writing
frame=  993 fps=7.6 q=29.0 size=N/A time=00:00:33.00 bitrate=N/A speed=0.251x    
frame=  998 fps=7.6 q=29.0 size=N/A time=00:00:33.16 bitrate=N/A speed=0.251x    
frame= 1000 fps=7.6 q=29.0 size=N/A time=00:00:33.23 bitrate=N/A speed=0.251x    
frame= 1005 fps=7.6 q=29.0 size=N/A time=00:00:33.40 bitrate=N/A speed=0.251x    
frame= 1009 fps=7.6 q=29.0 size=N/A time=00:00:33.53 bitrate=N/A speed=0.251x    
frame= 1011 fps=7.5 q=29.0 size=N/A time=00:00:33.60 bitrate=N/A speed=0.251x    
frame= 1017 fps=7.6 q=29.0 size=N/A time=00:00:33.80 bitrate=N/A speed=0.251x    
frame= 1021 fps=7.6 q=29.0 size=N/A time=00:00:33.93 bitrate=N/A speed=0.251x    
frame= 1029 fps=7.6 q=29.0 size=N/A time=00:00:34.20 bitrate=N/A speed=0.252x    
frame= 1037 fps=7.6 q=29.0 size=N/A time=00:00:34.46 bitrate=N/A speed=0.254x    
frame= 1041 fps=7.6 q=29.0 size=N/A time=00:00:34.60 bitrate=N/A speed=0.254x    
frame= 1052 fps=7.7 q=29.0 size=N/A time=00:00:34.96 bitrate=N/A speed=0.255x    
frame= 1059 fps=7.7 q=29.0 size=N/A time=00:00:35.20 bitrate=N/A speed=0.256x    
frame= 1069 fps=7.7 q=29.0 size=N/A time=00:00:35.53 bitrate=N/A speed=0.258x    
frame= 1075 fps=7.8 q=29.0 size=N/A time=00:00:35.73 bitrate=N/A speed=0.258x    
[hls @ 0xaaaae07adc60] Opening '/cache/transcodes/52f658a185fc4020fb3b9f81fe6b9b5211.mp4' for writing
frame= 1081 fps=7.8 q=29.0 size=N/A time=00:00:35.93 bitrate=N/A speed=0.259x    
frame= 1086 fps=7.8 q=29.0 size=N/A time=00:00:36.10 bitrate=N/A speed=0.259x    
frame= 1094 fps=7.8 q=29.0 size=N/A time=00:00:36.36 bitrate=N/A speed=0.26x    
frame= 1101 fps=7.8 q=29.0 size=N/A time=00:00:36.60 bitrate=N/A speed=0.261x    
frame= 1108 fps=7.9 q=29.0 size=N/A time=00:00:36.83 bitrate=N/A speed=0.261x    
frame= 1115 fps=7.9 q=29.0 size=N/A time=00:00:37.06 bitrate=N/A speed=0.262x    
frame= 1124 fps=7.9 q=29.0 size=N/A time=00:00:37.36 bitrate=N/A speed=0.263x    
frame= 1130 fps=7.9 q=29.0 size=N/A time=00:00:37.56 bitrate=N/A speed=0.264x    
frame= 1136 fps=7.9 q=29.0 size=N/A time=00:00:37.76 bitrate=N/A speed=0.264x    
frame= 1137 fps=7.9 q=29.0 size=N/A time=00:00:37.80 bitrate=N/A speed=0.263x    
frame= 1144 fps=7.9 q=29.0 size=N/A time=00:00:38.03 bitrate=N/A speed=0.264x    
frame= 1148 fps=7.9 q=29.0 size=N/A time=00:00:38.16 bitrate=N/A speed=0.264x    
frame= 1154 fps=8.0 q=29.0 size=N/A time=00:00:38.36 bitrate=N/A speed=0.265x    
frame= 1160 fps=8.0 q=29.0 size=N/A time=00:00:38.56 bitrate=N/A speed=0.265x    

[q] command received. Exiting.

[hls @ 0xaaaae07adc60] Opening '/cache/transcodes/52f658a185fc4020fb3b9f81fe6b9b5212.mp4' for writing
[mp4 @ 0xffff68205fa0] Packet duration: -1 / dts: 1720319 is out of range
[hls @ 0xaaaae07adc60] Opening '/cache/transcodes/52f658a185fc4020fb3b9f81fe6b9b5213.mp4' for writing
[out#0/hls @ 0xaaaae07502a0] video:20488KiB audio:783KiB subtitle:0KiB other streams:0KiB global headers:0KiB muxing overhead: unknown
frame= 1201 fps=8.1 q=-1.0 Lsize=N/A time=00:00:39.90 bitrate=N/A dup=1 drop=0 speed=0.268x    
[libx264 @ 0xaaaae0755b80] frame I:14    Avg QP:19.86  size: 92232
[libx264 @ 0xaaaae0755b80] frame P:370   Avg QP:22.28  size: 34014
[libx264 @ 0xaaaae0755b80] frame B:817   Avg QP:23.90  size:  8694
[libx264 @ 0xaaaae0755b80] consecutive B-frames:  1.9% 19.5%  8.0% 70.6%
[libx264 @ 0xaaaae0755b80] mb I  I16..4: 42.0%  0.0% 58.0%
[libx264 @ 0xaaaae0755b80] mb P  I16..4: 25.9%  0.0%  8.2%  P16..4: 33.5% 14.2%  5.0%  0.0%  0.0%    skip:13.1%
[libx264 @ 0xaaaae0755b80] mb B  I16..4:  4.3%  0.0%  0.3%  B16..8: 21.4%  5.3%  0.4%  direct: 7.4%  skip:60.9%  L0:47.0% L1:46.2% BI: 6.8%
[libx264 @ 0xaaaae0755b80] coded y,uvDC,uvAC intra: 24.8% 39.3% 3.0% inter: 6.3% 16.4% 0.0%
[libx264 @ 0xaaaae0755b80] i16 v,h,dc,p: 32% 24% 24% 20%
[libx264 @ 0xaaaae0755b80] i4 v,h,dc,ddl,ddr,vr,hd,vl,hu: 24% 23% 23%  4%  7%  5%  5%  4%  6%
[libx264 @ 0xaaaae0755b80] i8c dc,h,v,p: 42% 27% 23%  8%
[libx264 @ 0xaaaae0755b80] Weighted P-Frames: Y:11.4% UV:3.5%
[libx264 @ 0xaaaae0755b80] kb/s:4192.40